<?xml version="1.0" encoding="utf-8"?>
<!-- Generator: Adobe Illustrator 19.0.0, SVG Export Plug-In . SVG Version: 6.00 Build 0)  -->
<svg width="158" version="1.1" id="siatka" xmlns="http://www.w3.org/2000/svg" xmlns:xlink="http://www.w3.org/1999/xlink" x="0px" y="0px"
	 viewBox="0 0 425.2 172" style="enable-background:new 0 0 425.2 172;" xml:space="preserve">
<style type="text/css">
	.st0{fill:#D8D9DA;stroke:#D8D9DA;stroke-width:1.5;}
	.st1{fill:#FFFFFF;stroke:#D8D9DA;stroke-width:0.7;}
	.st2{fill:#ED1C2E;}
	.st3{fill:#D8D9DA;}
	.st4{fill:#FFFFFF;}
</style>
<g>
	<g>
		<g>
			<path class="st0" d="M102.5,67.5c2.5,0.5,4.4,1.5,5.6,2.9c1.8,2.3,2.6,5.2,2.3,8.9c-0.4,4.1-1.6,9.2-3.7,15.3
				c-2.1,6-4.2,10.6-6.4,13.8c-2.8,4.1-5.8,6.6-9,7.5c-1.5,0.5-4.5,0.7-9,0.7H39.8c-3.1,0-4.6-1.3-4.3-3.8c0.1-0.7,0.3-1.9,0.8-3.5
				l21-68.2c0.8-2.7,1.3-4.5,1.4-5.4c0.2-2-1-3.3-3.5-3.9l0.3-1h45.4c5.9,0,10,0.9,12.5,2.7c2.8,2.1,4,5.3,3.6,9.9
				c-0.3,3.1-1,6.4-2.2,9.8c-1.2,3.5-2.6,6.4-4.3,8.9C108.8,64.7,106.2,66.5,102.5,67.5z M72.2,77.2l-6.6,21.4h7.6
				c2.2,0,3.9-0.3,5-0.9c1.2-0.6,2.3-1.7,3.3-3.4c0.8-1.4,1.6-3.3,2.4-5.7c0.7-2.4,1.2-4.5,1.4-6.2c0.2-2-0.2-3.3-1.1-4.1
				c-0.9-0.8-2.7-1.1-5.2-1.1H72.2z M81.5,47.1l-4.6,14.9H83c2.9,0,5-0.5,6.2-1.6c2.3-1.9,3.6-4.8,4-8.8c0.1-1.6-0.1-2.8-0.9-3.5
				c-0.7-0.7-2-1.1-3.8-1.1H81.5z"/>
		</g>
		<g>
			<path class="st0" d="M328,31.1l-3.4,11c-0.7,2.4-1.6,4-2.6,4.7c-1,0.7-2.8,1.1-5.5,1.1h-8.8c-3.1,0-5.2,0.1-6.4,0.4
				c-1.2,0.3-2.3,0.9-3.3,1.8c-1.3,1.3-2.6,3.3-3.8,6c-1.2,2.8-3,7.9-5.5,15.4c-3,9.3-4.6,15.4-4.9,18.5c-0.3,3.1,0.6,5.3,2.6,6.4
				c1.3,0.8,5.8,1.4,9.6,1.4h7.5c3.5,0,5.8-0.3,7.1-0.9c1.2-0.6,2.4-2,3.6-4.1l1.1-0.2l-4.4,14.2c-1.3,4.4-3.2,7.1-5.7,8.1
				c-2.5,1-8.3,1.5-17.4,1.5c-10.8,0-17.9-0.4-21.2-1.1c-3.5-0.7-6.1-2.5-7.8-5.4c-1.8-3.2-2.5-7.1-2.1-11.9
				c0.5-5.6,2.3-13.6,5.3-24c3-10.4,6.2-19.3,9.5-26.6c3.4-7.5,7.8-12.3,13.2-14.6c3.2-1.3,7.8-1.9,13.8-1.9H328z"/>
		</g>
		<g>
			<path class="st0" d="M222,96.5h-21.1l-4.8,11.3c-0.8,2-1.3,3.4-1.3,4.3c0,1.9,1.6,3,3.9,3.5l-0.2,1h-22.1c-2.6,0-3.9-1.1-3.9-3.4
				c0-0.8,0.5-2.2,1.5-4.3L208,39.5c1-2.1,1.6-3.6,1.6-4.6c0-1.6-1.7-2.6-4-3l0.1-0.8h31.9c2.9,0,4.7,0.4,5.5,1.2
				c0.8,0.8,1.2,2.8,1.3,6l3.1,70.1c0.1,2.5,0.5,4.2,1.2,5.2c0.7,1,1,1.9,2.9,2.2l0.1,0.7h-23.6c-2.2,0-3.7-0.4-4.5-1.1
				c-0.8-0.8-1.2-2.3-1.3-4.5L222,96.5z M221.6,81.6l-0.8-31l-13.4,31H221.6z"/>
		</g>
		<g>
			<path class="st0" d="M142.5,98.6l16.8,0.2c2.7,0,4.7-0.3,5.8-1c1.1-0.6,2.1-2,3-4.1l1-0.2l-5,16.4c-0.9,2.8-1.9,4.6-2.9,5.4
				c-1.1,0.8-3,1.3-5.7,1.3h-37.2c-4.1,0-6-1.3-5.8-3.8c0.1-0.8,0.3-1.9,0.7-3.1l21.1-68.5c0.8-2.7,1.3-4.5,1.4-5.4
				c0.2-2-1-3.3-3.5-3.9l0.2-0.8h23.2c2.3,0,3.9,0.3,4.9,1c1,0.6,1.4,1.7,1.2,3.2c-0.1,0.9-0.3,2-0.7,3.2L142.5,98.6z"/>
		</g>
		<g>
			<path class="st0" d="M397.9,115.5c-1.4-0.1-2.4-0.4-2.9-0.8c-0.6-0.6-1.2-2-1.6-4.1L382.6,61l25.2-21.9c2.5-2.2,3.8-4,3.9-5.4
				c0.2-1.8-1.2-2.6-4.2-2.6h-26l-0.2,0.7c2,0.3,3.9,2.4,2.9,4.5c-0.3,0.8-1.8,2.5-3.3,3.9l-18.2,16.6l6-19.3c0.3-1,0.5-1.8,0.5-2.6
				c0.1-1-0.2-1.8-0.8-2.6c-0.7-0.8-2.5-1.3-5.2-1.3h-23.3l-0.2,0.8c3.7,0.8,2.7,4.5,2.5,6.3c-0.1,1-0.5,2.8-1.4,5.5l-20.2,65.8
				c-0.4,1.4-0.7,2.4-0.8,3.1c-0.2,2.7,1.5,4,5.1,4h24.2l0.3-0.9c-2.4-0.8-3.5-2-3.3-3.8c0.1-0.8,0.5-2.6,1.4-5.5l6.6-21.6l7.6-6.6
				l6.4,32.4c0.5,2.6,1.2,4.2,2,4.9c0.8,0.7,2.4,1.1,4.8,1.1l0,0h22.6L397.9,115.5z"/>
		</g>
	</g>
	<g>
		<g>
			<path class="st1" d="M102.5,67.5c2.5,0.5,4.4,1.5,5.6,2.9c1.8,2.3,2.6,5.2,2.3,8.9c-0.4,4.1-1.6,9.2-3.7,15.3
				c-2.1,6-4.2,10.6-6.4,13.8c-2.8,4.1-5.8,6.6-9,7.5c-1.5,0.5-4.5,0.7-9,0.7H39.8c-3.1,0-4.6-1.3-4.3-3.8c0.1-0.7,0.3-1.9,0.8-3.5
				l21-68.2c0.8-2.7,1.3-4.5,1.4-5.4c0.2-2-1-3.3-3.5-3.9l0.3-1h45.4c5.9,0,10,0.9,12.5,2.7c2.8,2.1,4,5.3,3.6,9.9
				c-0.3,3.1-1,6.4-2.2,9.8c-1.2,3.5-2.6,6.4-4.3,8.9C108.8,64.7,106.2,66.5,102.5,67.5z M72.2,77.2l-6.6,21.4h7.6
				c2.2,0,3.9-0.3,5-0.9c1.2-0.6,2.3-1.7,3.3-3.4c0.8-1.4,1.6-3.3,2.4-5.7c0.7-2.4,1.2-4.5,1.4-6.2c0.2-2-0.2-3.3-1.1-4.1
				c-0.9-0.8-2.7-1.1-5.2-1.1H72.2z M81.5,47.1l-4.6,14.9H83c2.9,0,5-0.5,6.2-1.6c2.3-1.9,3.6-4.8,4-8.8c0.1-1.6-0.1-2.8-0.9-3.5
				c-0.7-0.7-2-1.1-3.8-1.1H81.5z"/>
		</g>
		<g>
			<path class="st1" d="M328,31.1l-3.4,11c-0.7,2.4-1.6,4-2.6,4.7c-1,0.7-2.8,1.1-5.5,1.1h-8.8c-3.1,0-5.2,0.1-6.4,0.4
				c-1.2,0.3-2.3,0.9-3.3,1.8c-1.3,1.3-2.6,3.3-3.8,6c-1.2,2.8-3,7.9-5.5,15.4c-3,9.3-4.6,15.4-4.9,18.5c-0.3,3.1,0.6,5.3,2.6,6.4
				c1.3,0.8,5.8,1.4,9.6,1.4h7.5c3.5,0,5.8-0.3,7.1-0.9c1.2-0.6,2.4-2,3.6-4.1l1.1-0.2l-4.4,14.2c-1.3,4.4-3.2,7.1-5.7,8.1
				c-2.5,1-8.3,1.5-17.4,1.5c-10.8,0-17.9-0.4-21.2-1.1c-3.5-0.7-6.1-2.5-7.8-5.4c-1.8-3.2-2.5-7.1-2.1-11.9
				c0.5-5.6,2.3-13.6,5.3-24c3-10.4,6.2-19.3,9.5-26.6c3.4-7.5,7.8-12.3,13.2-14.6c3.2-1.3,7.8-1.9,13.8-1.9H328z"/>
		</g>
		<g>
			<path class="st1" d="M222,96.5h-21.1l-4.8,11.3c-0.8,2-1.3,3.4-1.3,4.3c0,1.9,1.6,3,3.9,3.5l-0.2,1h-22.1c-2.6,0-3.9-1.1-3.9-3.4
				c0-0.8,0.5-2.2,1.5-4.3L208,39.5c1-2.1,1.6-3.6,1.6-4.6c0-1.6-1.7-2.6-4-3l0.1-0.8h31.9c2.9,0,4.7,0.4,5.5,1.2
				c0.8,0.8,1.2,2.8,1.3,6l3.1,70.1c0.1,2.5,0.5,4.2,1.2,5.2c0.7,1,1,1.9,2.9,2.2l0.1,0.7h-23.6c-2.2,0-3.7-0.4-4.5-1.1
				c-0.8-0.8-1.2-2.3-1.3-4.5L222,96.5z M221.6,81.6l-0.8-31l-13.4,31H221.6z"/>
		</g>
		<g>
			<path class="st1" d="M142.5,98.6l16.8,0.2c2.7,0,4.7-0.3,5.8-1c1.1-0.6,2.1-2,3-4.1l1-0.2l-5,16.4c-0.9,2.8-1.9,4.6-2.9,5.4
				c-1.1,0.8-3,1.3-5.7,1.3h-37.2c-4.1,0-6-1.3-5.8-3.8c0.1-0.8,0.3-1.9,0.7-3.1l21.1-68.5c0.8-2.7,1.3-4.5,1.4-5.4
				c0.2-2-1-3.3-3.5-3.9l0.2-0.8h23.2c2.3,0,3.9,0.3,4.9,1c1,0.6,1.4,1.7,1.2,3.2c-0.1,0.9-0.3,2-0.7,3.2L142.5,98.6z"/>
		</g>
		<g>
			<path class="st1" d="M397.9,115.5c-1.4-0.1-2.4-0.4-2.9-0.8c-0.6-0.6-1.2-2-1.6-4.1L382.6,61l25.2-21.9c2.5-2.2,3.8-4,3.9-5.4
				c0.2-1.8-1.2-2.6-4.2-2.6h-26l-0.2,0.7c2,0.3,3.9,2.4,2.9,4.5c-0.3,0.8-1.8,2.5-3.3,3.9l-18.2,16.6l6-19.3c0.3-1,0.5-1.8,0.5-2.6
				c0.1-1-0.2-1.8-0.8-2.6c-0.7-0.8-2.5-1.3-5.2-1.3h-23.3l-0.2,0.8c3.7,0.8,2.7,4.5,2.5,6.3c-0.1,1-0.5,2.8-1.4,5.5l-20.2,65.8
				c-0.4,1.4-0.7,2.4-0.8,3.1c-0.2,2.7,1.5,4,5.1,4h24.2l0.3-0.9c-2.4-0.8-3.5-2-3.3-3.8c0.1-0.8,0.5-2.6,1.4-5.5l6.6-21.6l7.6-6.6
				l6.4,32.4c0.5,2.6,1.2,4.2,2,4.9c0.8,0.7,2.4,1.1,4.8,1.1l0,0h22.6L397.9,115.5z"/>
		</g>
	</g>
	<rect x="1.5" y="139.6" class="st2" width="422.2" height="28"/>
	<g>
		<path class="st3" d="M72.3,6.8h-3l-3.2,9.9h-1l3.2-9.9H65l0.3-0.9h7.3L72.3,6.8z"/>
		<path class="st3" d="M85.8,16.6h-1l1.7-5.3h-5.9l-1.7,5.3h-1.1l3.4-10.7h1l-1.4,4.6h5.9l1.5-4.6h1L85.8,16.6z"/>
		<path class="st3" d="M104.6,6.8h-5.2l-1.2,3.8h5.1l-0.3,0.9h-5.1l-1.4,4.3h5.9l-0.2,0.8h-6.9l3.4-10.7h6.2L104.6,6.8z"/>
		<path class="st3" d="M130.9,15.2c-1.1,1.1-2.6,1.8-4.1,1.8c-2.7,0-4.1-1.8-3.8-4.8c0.2-1.8,1.1-3.7,2.3-4.9c1.2-1.1,2.5-1.7,4-1.7
			c2.8,0,4.2,1.7,3.9,4.6C133,12.1,132.2,13.9,130.9,15.2z M129.2,6.4c-2.5,0-4.8,2.5-5.2,5.7c-0.3,2.5,0.9,3.9,2.9,3.9
			c2.6,0,4.8-2.4,5.2-5.9C132.5,7.7,131.4,6.4,129.2,6.4z"/>
		<path class="st3" d="M147.6,11.5c0.7,0.4,1,1,0.9,1.8c0,0.2,0,0.4-0.1,0.6l-0.2,1.3c-0.1,0.3-0.1,0.5-0.1,0.6c0,0.2,0,0.4,0.1,0.7
			l0,0.1H147c0-0.2,0-0.4,0-0.5c0-0.2,0.1-0.4,0.1-0.6l0.3-1.4c0-0.2,0.1-0.4,0.1-0.7c0.1-1.3-0.5-1.6-1.9-1.6h-2.6l-1.6,4.8h-1
			l3.5-10.7h3.2c2.3,0,3.3,1,3.1,2.6C150,10.1,149.1,11.1,147.6,11.5z M147.1,6.8h-2.5l-1.3,4.1h2.5c2.1,0,3.3-0.7,3.4-2.4
			C149.2,7.4,148.6,6.8,147.1,6.8z"/>
		<path class="st3" d="M158,16.6h-1l3.4-10.7h1L158,16.6z"/>
		<path class="st3" d="M176.4,16.6h-0.8l0.4-1.4c-1.1,1.2-2.3,1.7-3.6,1.7c-2.7,0-4.2-1.9-3.8-4.8c0.2-1.7,1-3.5,2.2-4.7
			c1.1-1.2,2.5-1.8,4.1-1.8c2.2,0,3.6,1.3,3.5,3.3h-1c0-1.5-1-2.5-2.6-2.5c-2.6,0-4.9,2.5-5.2,5.7c-0.3,2.5,0.9,4,3,4
			c1.8,0,3.6-1.5,4.3-4h-3.7l0.3-0.8h4.6L176.4,16.6z"/>
		<path class="st3" d="M186.7,16.6h-1l3.4-10.7h1L186.7,16.6z"/>
		<path class="st3" d="M204.3,16.6H203l-2.8-9.4l-3,9.4h-1.1l3.5-10.7h1.1l2.9,9.5l3-9.5h1L204.3,16.6z"/>
		<path class="st3" d="M220.8,16.6l-0.2-3.3H216l-2.1,3.3h-1.1l6.9-10.7h1.2l1,10.7H220.8z M220,6.8l-3.6,5.7h4L220,6.8z"/>
		<path class="st3" d="M236.3,16.6h-6.7L233,5.9h1l-3.2,9.8h5.7L236.3,16.6z"/>
		<path class="st3" d="M264.9,11.5c-1,0.5-2,0.6-3.4,0.6h-1.8l-1.4,4.6h-1l3.3-10.7h2.7c1,0,1.8,0,2.5,0.5c0.7,0.5,1,1.3,0.9,2.2
			C266.5,9.9,266,10.9,264.9,11.5z M263.3,6.8h-2l-1.4,4.4h2.4c2,0,3.1-0.7,3.3-2.5C265.8,7.3,265,6.8,263.3,6.8z"/>
		<path class="st3" d="M280.4,11.5c0.7,0.4,1,1,0.9,1.8c0,0.2,0,0.4-0.1,0.6l-0.2,1.3c-0.1,0.3-0.1,0.5-0.1,0.6c0,0.2,0,0.4,0.1,0.7
			l0,0.1h-1.1c0-0.2,0-0.4,0-0.5c0-0.2,0.1-0.4,0.1-0.6l0.3-1.4c0-0.2,0.1-0.4,0.1-0.7c0.1-1.3-0.5-1.6-1.9-1.6h-2.6l-1.6,4.8h-1
			l3.5-10.7h3.2c2.3,0,3.3,1,3.1,2.6C282.8,10.1,281.9,11.1,280.4,11.5z M279.9,6.8h-2.5l-1.3,4.1h2.5c2.1,0,3.3-0.7,3.4-2.4
			C282,7.4,281.4,6.8,279.9,6.8z"/>
		<path class="st3" d="M299,6.8h-5.2l-1.2,3.8h5.1l-0.3,0.9h-5.1l-1.4,4.3h5.9l-0.2,0.8h-6.9l3.4-10.7h6.2L299,6.8z"/>
		<path class="st3" d="M314.9,16.6H314L317,7l-6.4,9.6h-0.9l-0.5-9.5l-3,9.5h-1l3.4-10.7h1.3l0.5,9.4l6.3-9.4h1.5L314.9,16.6z"/>
		<path class="st3" d="M325.4,16.6h-1l3.4-10.7h1L325.4,16.6z"/>
		<path class="st3" d="M344.3,12.5c-0.9,3-2.1,4.4-5,4.4c-2.4,0-3.5-1.3-3.3-3c0.1-0.7,0.3-1.4,0.4-1.9l2-6.2h1l-2,6.4
			c-0.2,0.6-0.3,1-0.3,1.4c-0.1,1.4,0.8,2.3,2.4,2.3c2,0,3.1-1,3.8-3.2l2.2-6.9h1L344.3,12.5z"/>
		<path class="st3" d="M362,16.6h-0.9l3.1-9.6l-6.4,9.6h-0.9l-0.5-9.5l-3,9.5h-1l3.4-10.7h1.3l0.5,9.4l6.3-9.4h1.5L362,16.6z"/>
	</g>
	<g>
		<path class="st4" d="M119.1,148.7h-9l-0.9,2.6h8l-1.5,4.3h-8l-0.9,3.1h9.5l-1.5,4.6H99.2l6.4-19.2h15L119.1,148.7z"/>
		<path class="st4" d="M151.8,163.3h-5.7l-2.9-10c-0.1-0.3-0.1-1,0-2.1l-0.1,0.5c-0.1,0.6-0.2,1.1-0.4,1.7l-3.2,9.9h-5.8l6.3-19.2
			h5.7l2.8,9.8c0.2,0.7,0.2,1.5,0.1,2.3c0.2-1,0.4-1.7,0.6-2.3l3.2-9.7h5.8L151.8,163.3z"/>
		<path class="st4" d="M191.8,148.7h-9l-0.9,2.6h8l-1.5,4.3h-8l-0.9,3.1h9.5l-1.5,4.6h-15.7l6.4-19.2h15L191.8,148.7z"/>
		<path class="st4" d="M223.4,154.7c1.6,0.7,2.1,1.6,1.8,3.3c-0.1,0.4-0.2,0.8-0.3,1.2l-0.6,1.9c-0.1,0.2-0.1,0.4-0.2,0.6
			c-0.1,0.5,0,0.8,0.4,0.9l-0.1,0.5H218c0-0.2,0-0.5,0.1-0.9c0-0.2,0.1-0.6,0.3-1.1l0.6-1.9c0.1-0.3,0.2-0.6,0.2-0.8
			c0.3-1.7-0.6-2.2-2.8-2.2h-1.6l-2.3,6.9h-6l6.3-19.2h9c4.9,0,7,1.5,6.4,5.1C227.7,151.8,226.1,153.7,223.4,154.7z M219.9,148.7
			h-2.6l-1.2,3.6h3c1.9,0,2.8-0.6,3.1-2C222.3,149.1,221.6,148.7,219.9,148.7z"/>
		<path class="st4" d="M259.5,150.7c0-1.5-1.1-2.4-2.8-2.4c-2.7,0-5,2.6-5.8,6.7c-0.5,2.6,0.5,4,2.7,4c1.5,0,2.8-0.7,3.8-2.1h-2.7
			l1.3-3.9h8.5l-3.4,10.3h-4l0.1-1.4c-1.6,1.3-3.5,2-5.7,2c-5.1,0-7.8-3.6-6.9-8.9c0.6-3.2,2-5.9,4.1-7.8c2.5-2.3,5.2-3.4,8.5-3.4
			c5.4,0,8.1,2.5,7.8,7.1H259.5z"/>
		<path class="st4" d="M293,156.3l-2.3,7h-6.2l2.2-7l-3.4-12.2h6.7l1,6.1c0.1,0.4,0,0.9-0.1,1.5l0,0.2c0.2-0.7,0.4-1.2,0.7-1.6
			l4.5-6.2h7.1L293,156.3z"/>
	</g>
	<polygon class="st3" points="37.2,29.8 26.2,37.8 30.4,50.8 19.4,42.8 8.3,50.8 12.5,37.8 1.5,29.8 15.1,29.8 19.4,16.8 23.6,29.8 
			"/>
</g>
</svg>
